:SAMPLES-PER-SECOND 30
:FULLY-SPECIFIED
:DEGREES
231
root  35.10007182 36.48658512 -14.90146757 10.4882555 6.239096642 4.086114407
lowerback  -8.593810081 1.641450047 0.9424020052
upperback  -4.051799774 1.739070058 -4.199610233
thorax  0.7778689861 0.638094008 -4.729869843
lowerneck  -15.84840012 -3.074379921 -0.2922410071
upperneck  12.61240005 -5.36507988 6.534329891
head  6.647809982 -2.134660006 1.585749984
lclavicle  0 -4.497500157e-015 -2.743230041e-014
lhumerus  -43.95439911 25.91010094 68.51560211
lradius  -0.1159095839 -6.507048965e-006 27.5605011
lwrist  4.824992743e-007 -3.790274832e-007 -30.4083004
lhand  -4.417018933e-031 -36.92369843 -10.76980019
lfingers  90 7.125020027 -90
lthumb  94.84737526 -25.60301482 101.1030546
rclavicle  0 -4.497500157e-015 -2.743230041e-014
rhumerus  7.633100986 -3.987980843 -52.95119858
rradius  -5.16745672e-007 2.214343908e-008 102.4410019
rwrist  1.380293725e-006 2.528095422e-007 179.4049988
rhand  -1.770287634e-031 4.187150002 -7.54761982
rfingers  -90 -7.125020027 -90
rthumb  -85.12808756 -8.504718474 -60.04313503
rfemur  -13.75715351 12.11351204 13.62414646
rtibia  -2.160903692 0.9961247444 23.1223278
rfoot  -1.912335992 -17.60846329 -41.74284744
rtoes  3.834457173 19.6437716 -101.2754743
lfemur  -11.73111343 -21.43848801 -18.98020554
ltibia  2.477148533 1.185959101 15.96111107
lfoot  1.07675612 -28.19273376 33.39086914
ltoes  -8.661221334 -18.0969149 -116.1230777
232
root  35.10302446 36.48895804 -14.89340865 10.38100147 6.180787563 4.062119961
lowerback  -8.565260887 1.598739982 0.9123709798
upperback  -4.078050137 1.681229949 -4.169040203
thorax  0.7280480266 0.6080120206 -4.686850071
lowerneck  -15.83520031 -3.037800074 -0.3866580129
upperneck  12.61180019 -5.299379826 6.575469971
head  6.646500111 -2.10374999 1.621500015
lclavicle  0 -4.497500157e-015 -2.743230041e-014
lhumerus  -43.9742012 25.87070084 68.60230255
lradius  -0.1158705205 -6.507048965e-006 27.69440079
lwrist  4.824992743e-007 -3.790274832e-007 -30.32530022
lhand  -0 -36.95500183 -10.71580029
lfingers  90 7.125020027 -90
lthumb  94.85060204 -25.54893905 101.1316801
rclavicle  0 -4.497500157e-015 -2.743230041e-014
rhumerus  5.693099499 -4.007209778 -53.49209976
rradius  -5.16745672e-007 2.214343908e-008 103.4209976
rwrist  1.380293725e-006 2.528095422e-007 179.2680054
rhand  -1.77019945e-031 4.147980213 -7.438509941
rfingers  -90 -7.125020027 -90
rthumb  -85.08195512 -8.596730262 -60.07312642
rfemur  -13.6051836 12.13140965 13.63545609
rtibia  -2.116172075 0.9970420599 23.03787041
rfoot  -1.870007515 -17.65491676 -41.70275879
rtoes  3.811304752 19.64810528 -101.2066107
lfemur  -11.55696297 -21.31481934 -19.03545952
ltibia  2.485515594 1.185457468 15.8986187
lfoot  1.029668331 -28.20740891 33.31754303
ltoes  -8.668037606 -18.09373602 -116.1450233
233
root  35.10431905 36.48901812 -14.89125199 10.32715893 6.056658745 4.046621323
lowerback  -8.517939568 1.585039854 0.9339826703
upperback  -4.089710236 1.660650015 -4.151470184
thorax  0.6882269979 0.5971239805 -4.683440208
lowerneck  -15.8465004 -3.003020048 -0.4837349951
upperneck  12.66219997 -5.242179871 6.625460148
head  6.666339874 -2.074919939 1.659209967
lclavicle  0 -4.497500157e-015 -2.743230041e-014
lhumerus  -44.02080154 26.18180084 68.43289948
lradius  -0.1158294156 -6.507048965e-006 27.66139793
lwrist  4.824992743e-007 -3.790274832e-007 -30.70779991
lhand  -4.417268239e-031 -36.9280014 -10.7748003
lfingers  90 7.125020027 -90
lthumb  94.85049181 -25.60776373 101.1081755
rclavicle  0 -4.497500157e-015 -2.743230041e-014
rhumerus  3.704149723 -4.027520657 -53.86029816
rradius  -5.16745672e-007 2.214343908e-008 104.427002
rwrist  1.380293725e-006 2.528095422e-007 178.8350067
rhand  -1.77000414e-031 4.059869766 -7.365640163
rfingers  -90 -7.125020027 -90
rthumb  -85.06543446 -8.654237769 -60.15348924
rfemur  -13.544734 12.19377136 13.63206291
rtibia  -2.089454174 0.9931811094 22.992239
rfoot  -1.831118464 -17.68508339 -41.63718033
rtoes  3.803324631 19.64959266 -101.1828783
lfemur  -11.43288994 -21.26509285 -19.07064056
ltibia  2.508100271 1.175281048 15.81751633
lfoot  1.029978275 -28.16152191 33.41299438
ltoes  -8.658249288 -18.09829998 -116.1135101
234
root  35.10326776 36.49055901 -14.88913739 10.29198742 5.939759254 4.010935783
lowerback  -8.462678909 1.542010069 0.9089599848
upperback  -4.072760105 1.608250022 -4.115530014
thorax  0.669088006 0.5730590224 -4.636970043
lowerneck  -15.87940025 -2.941489935 -0.5420789719
upperneck  12.66079998 -5.142809868 6.626029968
head  6.668990135 -2.02782011 1.679280043
lclavicle  0 -4.497500157e-015 -2.743230041e-014
lhumerus  -44.00159836 26.46520042 68.34809875
lradius  -0.1157862768 -6.507048965e-006 27.62040138
lwrist  4.824992743e-007 -3.790274832e-007 -30.76950073
lhand  -4.419094784e-031 -36.95949936 -10.73480034
lfingers  90 7.125020027 -90
lthumb  94.85676144 -25.56741503 101.1382029
rclavicle  0 -4.497500157e-015 -2.743230041e-014
rhumerus  1.813929081 -3.868249893 -54.4219017
rradius  -5.16745672e-007 2.214343908e-008 105.362999
rwrist  1.380293725e-006 2.528095422e-007 179.098999
rhand  -1.769738713e-031 3.936939955 -7.353980064
rfingers  -90 -7.125020027 -90
rthumb  -85.08771204 -8.656589792 -60.27247766
rfemur  -13.48455143 12.1889534 13.64664841
rtibia  -2.050388336 0.9586798549 22.90509987
rfoot  -1.781918168 -17.7857151 -41.54672241
rtoes  3.807813538 19.64875639 -101.1962278
lfemur  -11.42560768 -21.25370407 -19.03178787
ltibia  2.464360476 1.147535443 15.86412621
lfoot  1.02155149 -28.12896919 33.48341751
ltoes  -8.653079154 -18.10070802 -116.0968682
235
root  35.10453232 36.49070319 -14.88729612 10.22520828 5.828268051 3.977791548
lowerback  -8.509160042 1.489130139 0.8694521189
upperback  -4.02229023 1.546869993 -4.077340126
thorax  0.7396140099 0.5466679931 -4.579030037
lowerneck  -15.92570019 -2.865910053 -0.5324249864
upperneck  12.58920002 -5.022900105 6.568739891
head  6.647140026 -1.973019958 1.671959996
lclavicle  0 -4.497500157e-015 -2.743230041e-014
lhumerus  -43.89960098 26.59199905 68.40249634
lradius  -0.1157411262 -6.507048965e-006 27.62630272
lwrist  4.824992743e-007 -3.790274832e-007 -30.58569908
lhand  -4.417807257e-031 -36.93730164 -10.78250027
lfingers  90 7.125020027 -90
lthumb  94.85652206 -25.61495088 101.1188686
rclavicle  0 -4.497500157e-015 -2.743230041e-014
rhumerus  -0.007960318588 -3.888599634 -55.06650162
rradius  -5.16745672e-007 2.214343908e-008 106.1389999
rwrist  1.380293725e-006 2.528095422e-007 179.1970062
rhand  -1.769628806e-031 3.884890079 -7.297520161
rfingers  -90 -7.125020027 -90
rthumb  -85.07136118 -8.702283751 -60.31895978
rfemur  -13.38748169 12.17166615 13.65295887
rtibia  -2.010035038 0.9439979792 22.80919647
rfoot  -1.734882355 -17.83786392 -41.47568512
rtoes  3.850446632 19.64076271 -101.3230413
lfemur  -11.42897606 -21.2455101 -19.004879
ltibia  2.386452198 1.074244261 15.98110771
lfoot  0.9807079434 -28.05428886 33.47517014
ltoes  -8.652077574 -18.10117431 -116.0936445
236
root  35.10606721 36.49269164 -14.88950234 10.17228985 5.714756012 3.95044899
lowerback  -8.499629974 1.451889873 0.7663297653
upperback  -4.002289772 1.508559942 -4.010980129
thorax  0.7475010157 0.5312510133 -4.454199791
lowerneck  -15.95979977 -2.823920012 -0.5610970259
upperneck  12.54829979 -4.939829826 6.502150059
head  6.635059834 -1.937849998 1.664039969
lclavicle  0 -4.497500157e-015 -2.743230041e-014
lhumerus  -43.85720062 26.70389938 68.43569946
lradius  -0.1155695245 -6.507048965e-006 27.5333004
lwrist  4.824992743e-007 -3.790274832e-007 -30.8083992
lhand  -4.417320405e-031 -36.92890167 -10.82409954
lfingers  90 7.125020027 -90
lthumb  94.86143285 -25.65617045 101.1136264
rclavicle  0 -4.497500157e-015 -2.743230041e-014
rhumerus  -1.84054935 -3.845919371 -55.50159836
rradius  -5.16745672e-007 2.214343908e-008 106.8779984
rwrist  1.380293725e-006 2.528095422e-007 179.3650055
rhand  -1.76984499e-031 3.986619949 -7.211589813
rfingers  -90 -7.125020027 -90
rthumb  -85.00479824 -8.783324542 -60.21322894
rfemur  -13.32403469 12.22657394 13.65638924
rtibia  -1.982527971 0.9316344261 22.74271774
rfoot  -1.699216843 -17.87656212 -41.43971634
rtoes  3.838980138 19.6429218 -101.288929
lfemur  -11.40412712 -21.22705078 -18.9902153
ltibia  2.34180975 1.023519516 16.03658104
lfoot  0.9614828825 -27.98863983 33.51395416
ltoes  -8.646680235 -18.10368589 -116.0762739
237
root  35.10751199 36.49256549 -14.89275084 10.11409378 5.598195553 3.932159901
lowerback  -8.51543045 1.425449967 0.731035471
upperback  -3.985189915 1.478620052 -3.970870018
thorax  0.7695770264 0.5185189843 -4.394519806
lowerneck  -15.99979973 -2.782000065 -0.5889040232
upperneck  12.54829979 -4.867670059 6.466869831
head  6.638589859 -1.905069828 1.664669871
lclavicle  0 -4.497500157e-015 -2.743230041e-014
lhumerus  -43.82540131 26.67819977 68.53269958
lradius  -0.115351893 -6.507048965e-006 27.54239845
lwrist  4.824992743e-007 -3.790274832e-007 -30.78120041
lhand  -4.42057567e-031 -36.98500061 -10.80420017
lfingers  90 7.125020027 -90
lthumb  94.88365101 -25.63459132 101.1719267
rclavicle  0 -4.497500157e-015 -2.743230041e-014
rhumerus  -3.691559315 -3.853350401 -55.93310165
rradius  -5.16745672e-007 2.214343908e-008 107.5439987
rwrist  1.380293725e-006 2.528095422e-007 179.421936
rhand  -1.769946837e-031 4.033649921 -7.026569843
rfingers  -90 -7.125020027 -90
rthumb  -84.90074644 -8.946739628 -60.15300309
rfemur  -13.26247406 12.22053146 13.65640259
rtibia  -1.958372593 0.9074786901 22.69630623
rfoot  -1.662932992 -17.94756699 -41.34365845
rtoes  3.822774898 19.64596171 -101.2407252
lfemur  -11.36689663 -21.18657494 -18.99036217
ltibia  2.30529356 0.9955445528 16.07422066
lfoot  0.9650276899 -27.96961594 33.59421539
ltoes  -8.659702993 -18.09762257 -116.1181898
